<?xml version="1.0" encoding="utf-8"?>
<!-- Generator: Adobe Illustrator 25.2.0, SVG Export Plug-In . SVG Version: 6.00 Build 0)  -->
<svg version="1.1" id="Layer_1" xmlns="http://www.w3.org/2000/svg" xmlns:xlink="http://www.w3.org/1999/xlink" x="0px" y="0px"
	 viewBox="0 0 1920 1080" style="enable-background:new 0 0 1920 1080;" xml:space="preserve">
<style type="text/css">
	.st0{fill:#FFFFFF;stroke:#000000;stroke-width:3;stroke-miterlimit:10;}
	.st1{fill:none;stroke:#000000;stroke-width:3;stroke-miterlimit:10;}
	.st2{fill:url(#SVGID_1_);stroke:#000000;stroke-width:3;stroke-miterlimit:10;}
	.st3{fill:none;}
</style>
<path class="st0" d="M960,340c-110.5,0-200,89.5-200,200s89.5,200,200,200s200-89.5,200-200S1070.5,340,960,340z M960,680
	c-77.3,0-140-62.7-140-140s62.7-140,140-140s140,62.7,140,140S1037.3,680,960,680z"/>
<circle class="st1" cx="960" cy="540" r="140"/>
<radialGradient id="SVGID_1_" cx="960" cy="540" r="140" gradientUnits="userSpaceOnUse">
	<stop  offset="0" style="stop-color:#FFFFFF"/>
	<stop  offset="0.4159" style="stop-color:#FDFDFD"/>
	<stop  offset="0.5657" style="stop-color:#F6F6F6"/>
	<stop  offset="0.6724" style="stop-color:#EBEBEB"/>
	<stop  offset="0.7587" style="stop-color:#DADADA"/>
	<stop  offset="0.8318" style="stop-color:#C4C4C4"/>
	<stop  offset="0.8532" style="stop-color:#BCBCBC"/>
	<stop  offset="0.8914" style="stop-color:#AEAEAE"/>
	<stop  offset="0.9522" style="stop-color:#9F9F9F"/>
	<stop  offset="1" style="stop-color:#999999"/>
</radialGradient>
<circle class="st2" cx="960" cy="540" r="140"/>
<path id="SVGID_x5F_2_x5F_" class="st3" d="M1109.3,540c0,82.5-66.9,149.3-149.3,149.3S810.7,622.5,810.7,540S877.5,390.7,960,390.7
	S1109.3,457.5,1109.3,540z"/>
<text><textPath  xlink:href="#SVGID_x5F_2_x5F_" startOffset="223.1283%">
<tspan  style="font-family:'TimesNewRomanPSMT'; font-size:36px;">Top Tables</tspan></textPath>
</text>
<path class="st0" d="M760,824.3h400c-44.9,44.9-100,40-100,40H860C860,864.3,799.9,864.3,760,824.3z"/>
<polyline class="st0" points="860,864.3 860,872.5 1060,872.5 1060,864.3 "/>
</svg>
